<svg width="32" height="32" viewBox="0 0 32 32" fill="none" xmlns="http://www.w3.org/2000/svg">
  <defs>
    <linearGradient id="leafGradient" x1="0%" y1="0%" x2="100%" y2="100%">
      <stop offset="0%" style="stop-color:#22c55e;stop-opacity:1" />
      <stop offset="100%" style="stop-color:#15803d;stop-opacity:1" />
    </linearGradient>
  </defs>
  
  <!-- Leaf shape -->
  <path d="M16 4C20 4 28 8 28 16C28 20 24 28 16 28C12 28 8 24 8 20C8 16 12 8 16 4Z" 
        fill="url(#leafGradient)" stroke="#15803d" stroke-width="1"/>
  
  <!-- Leaf vein -->
  <path d="M16 6L16 26M16 10C18 12 20 14 22 16M16 14C14 16 12 18 10 20" 
        stroke="#0f5132" stroke-width="1.5" stroke-linecap="round"/>
  
  <!-- Carbon dots -->
  <circle cx="12" cy="12" r="1.5" fill="#374151" opacity="0.7"/>
  <circle cx="20" cy="16" r="1.5" fill="#374151" opacity="0.7"/>
  <circle cx="16" cy="20" r="1.5" fill="#374151" opacity="0.7"/>
</svg>
